<svg width="162" height="22" viewBox="0 0 162 22" fill="none" xmlns="http://www.w3.org/2000/svg">
<path d="M15.104 8.904V11.88L9.728 13.224L8.96 21H2.72L0.8 1.608H15.52L16.512 5.576L10.464 5.96L10.144 8.904H15.104ZM20.104 19.432C18.568 18.152 17.8 16.1253 17.8 13.352C17.8 10.5787 18.568 8.56267 20.104 7.304C21.6613 6.024 23.7307 5.384 26.312 5.384C28.8933 5.384 30.952 6.024 32.488 7.304C34.0453 8.56267 34.824 10.5787 34.824 13.352C34.824 16.1253 34.0453 18.152 32.488 19.432C30.952 20.6907 28.8933 21.32 26.312 21.32C23.7307 21.32 21.6613 20.6907 20.104 19.432ZM24.968 9.736C24.712 10.4613 24.584 11.6667 24.584 13.352C24.584 15.0373 24.712 16.2533 24.968 17C25.224 17.7253 25.672 18.088 26.312 18.088C26.952 18.088 27.4 17.7253 27.656 17C27.912 16.2533 28.04 15.0373 28.04 13.352C28.04 11.6667 27.912 10.4613 27.656 9.736C27.4 8.98933 26.952 8.616 26.312 8.616C25.672 8.616 25.224 8.98933 24.968 9.736ZM38.729 19.432C37.193 18.152 36.425 16.1253 36.425 13.352C36.425 10.5787 37.193 8.56267 38.729 7.304C40.2863 6.024 42.3557 5.384 44.937 5.384C47.5183 5.384 49.577 6.024 51.113 7.304C52.6703 8.56267 53.449 10.5787 53.449 13.352C53.449 16.1253 52.6703 18.152 51.113 19.432C49.577 20.6907 47.5183 21.32 44.937 21.32C42.3557 21.32 40.2863 20.6907 38.729 19.432ZM43.593 9.736C43.337 10.4613 43.209 11.6667 43.209 13.352C43.209 15.0373 43.337 16.2533 43.593 17C43.849 17.7253 44.297 18.088 44.937 18.088C45.577 18.088 46.025 17.7253 46.281 17C46.537 16.2533 46.665 15.0373 46.665 13.352C46.665 11.6667 46.537 10.4613 46.281 9.736C46.025 8.98933 45.577 8.616 44.937 8.616C44.297 8.616 43.849 8.98933 43.593 9.736ZM55.05 13.064C55.05 11.592 55.2527 10.3227 55.658 9.256C56.0847 8.18933 56.6393 7.38933 57.322 6.856C58.5807 5.87467 59.978 5.384 61.514 5.384C62.282 5.384 62.986 5.544 63.626 5.864C64.2873 6.16267 64.746 6.472 65.002 6.792L65.386 7.24L65.13 0.231998H72.426L71.562 21H66.762L66.218 18.92C64.938 20.4987 63.3593 21.288 61.482 21.288C59.626 21.3093 58.09 20.616 56.874 19.208C55.658 17.8 55.05 15.752 55.05 13.064ZM63.562 9.672C62.3033 9.672 61.674 10.952 61.674 13.512C61.674 13.9813 61.706 14.4293 61.77 14.856C61.834 15.2827 62.026 15.7307 62.346 16.2C62.666 16.6693 63.1353 16.904 63.754 16.904C64.3727 16.904 64.842 16.5627 65.162 15.88C65.5033 15.176 65.674 14.3867 65.674 13.512C65.674 10.952 64.97 9.672 63.562 9.672ZM157.686 17.384C158.091 16.936 158.699 16.712 159.51 16.712C160.32 16.712 160.928 16.936 161.334 17.384C161.739 17.8107 161.942 18.3547 161.942 19.016C161.942 19.6773 161.739 20.232 161.334 20.68C160.928 21.1067 160.32 21.32 159.51 21.32C158.699 21.32 158.091 21.1067 157.686 20.68C157.28 20.232 157.078 19.6773 157.078 19.016C157.078 18.3547 157.28 17.8107 157.686 17.384Z" fill="#FF6000"/>
<path d="M88.9013 17.768C90.3733 17.768 91.5146 16.9893 92.3253 15.432C93.1359 13.8747 93.5413 12.2427 93.5413 10.536C93.5413 8.808 93.2319 7.432 92.6133 6.408C91.9946 5.384 91.1946 4.872 90.2133 4.872H90.0213L88.7093 17.768H88.9013ZM88.7733 21H82.5013L80.5813 1.608H90.0213C94.7786 1.608 98.0533 2.90933 99.8453 5.512C100.784 6.89867 101.253 8.54133 101.253 10.44C101.253 17.48 97.0933 21 88.7733 21ZM108.338 21.32C106.696 21.32 105.341 20.84 104.274 19.88C103.229 18.92 102.706 17.5653 102.706 15.816C102.706 14.0453 103.304 12.7653 104.498 11.976C105.693 11.1653 107.133 10.76 108.818 10.76C110.504 10.76 111.965 11.0267 113.202 11.56C112.925 9.78933 111.805 8.904 109.842 8.904C108.946 8.904 107.837 9.08533 106.514 9.448L105.714 6.568C107.634 5.77867 109.586 5.384 111.57 5.384C117.288 5.384 120.146 7.816 120.146 12.68C120.146 14.344 119.954 16.648 119.57 19.592L119.41 21H114.13L113.938 19.24C112.488 20.6267 110.621 21.32 108.338 21.32ZM111.218 17.352C112.178 17.352 113 17.0853 113.682 16.552L113.49 14.44C112.957 14.0773 112.36 13.896 111.698 13.896C111.058 13.896 110.525 14.056 110.098 14.376C109.693 14.696 109.49 15.0907 109.49 15.56C109.49 16.0293 109.65 16.4453 109.97 16.808C110.29 17.1707 110.706 17.352 111.218 17.352ZM135.942 16.2C135.942 17.416 135.536 18.4293 134.726 19.24C133.915 20.0507 132.976 20.6053 131.91 20.904C130.864 21.1813 129.851 21.32 128.87 21.32C127.888 21.32 127.024 21.256 126.278 21.128C125.552 21 124.934 20.8507 124.422 20.68C123.483 20.3173 122.736 19.976 122.182 19.656L121.894 19.464L123.302 16.552C124.582 17.2773 125.659 17.64 126.534 17.64C127.408 17.64 127.846 17.2773 127.846 16.552C127.846 16.1893 127.568 15.816 127.014 15.432C126.459 15.048 125.851 14.6853 125.19 14.344C124.55 14.0027 123.952 13.48 123.398 12.776C122.843 12.072 122.566 11.2613 122.566 10.344C122.566 8.70133 123.184 7.464 124.422 6.632C125.659 5.8 127.291 5.384 129.318 5.384C130.342 5.384 131.344 5.46933 132.326 5.64C133.307 5.81067 134.043 5.98133 134.534 6.152L135.238 6.44L134.438 9.672C133.222 9.224 132.187 9 131.334 9C130.48 9 130.054 9.33067 130.054 9.992C130.054 10.312 130.256 10.6213 130.662 10.92C131.067 11.1973 131.558 11.4747 132.134 11.752C132.71 12.0293 133.286 12.3493 133.862 12.712C134.438 13.0533 134.928 13.5333 135.334 14.152C135.739 14.7493 135.942 15.432 135.942 16.2ZM150.542 5.384C151.758 5.384 152.75 5.74667 153.518 6.472C154.286 7.176 154.798 8.02933 155.054 9.032C155.331 10.0347 155.47 11.3147 155.47 12.872C155.47 14.4293 155.225 17.1387 154.734 21H149.134L148.43 13.576C148.302 12.296 148.131 11.4427 147.918 11.016C147.705 10.5893 147.342 10.376 146.83 10.376C145.571 10.376 144.889 11.4533 144.782 13.608L144.462 21H138.574L137.71 0.231998H145.326L145.006 8.552C145.689 7.18667 146.819 6.23733 148.398 5.704C149.059 5.49067 149.774 5.384 150.542 5.384Z" fill="#2A2A2A"/>
</svg>
