<svg width="184" height="24" viewBox="0 0 184 24" fill="none" xmlns="http://www.w3.org/2000/svg">
<path d="M17.34 5.46C17.1027 5.46 16.8707 5.53038 16.6733 5.66224C16.476 5.79409 16.3222 5.98151 16.2313 6.20078C16.1405 6.42005 16.1168 6.66133 16.1631 6.89411C16.2094 7.12689 16.3236 7.34071 16.4915 7.50853C16.6593 7.67635 16.8731 7.79064 17.1059 7.83694C17.3387 7.88324 17.5799 7.85948 17.7992 7.76866C18.0185 7.67783 18.2059 7.52402 18.3378 7.32668C18.4696 7.12935 18.54 6.89734 18.54 6.66C18.54 6.34174 18.4136 6.03652 18.1885 5.81147C17.9635 5.58643 17.6583 5.46 17.34 5.46ZM21.94 7.88C21.9206 7.0503 21.7652 6.2294 21.48 5.45C21.2257 4.78313 20.83 4.17928 20.32 3.68C19.8248 3.16743 19.2196 2.77418 18.55 2.53C17.7727 2.23616 16.9508 2.07721 16.12 2.06C15.06 2 14.72 2 12 2C9.28 2 8.94 2 7.88 2.06C7.04915 2.07721 6.22734 2.23616 5.45 2.53C4.78168 2.77665 4.17693 3.16956 3.68 3.68C3.16743 4.17518 2.77418 4.78044 2.53 5.45C2.23616 6.22734 2.07721 7.04915 2.06 7.88C2 8.94 2 9.28 2 12C2 14.72 2 15.06 2.06 16.12C2.07721 16.9508 2.23616 17.7727 2.53 18.55C2.77418 19.2196 3.16743 19.8248 3.68 20.32C4.17693 20.8304 4.78168 21.2234 5.45 21.47C6.22734 21.7638 7.04915 21.9228 7.88 21.94C8.94 22 9.28 22 12 22C14.72 22 15.06 22 16.12 21.94C16.9508 21.9228 17.7727 21.7638 18.55 21.47C19.2196 21.2258 19.8248 20.8326 20.32 20.32C20.8322 19.8226 21.2283 19.2182 21.48 18.55C21.7652 17.7706 21.9206 16.9497 21.94 16.12C21.94 15.06 22 14.72 22 12C22 9.28 22 8.94 21.94 7.88ZM20.14 16C20.1327 16.6348 20.0178 17.2637 19.8 17.86C19.6403 18.2952 19.3839 18.6884 19.05 19.01C18.7256 19.3405 18.3332 19.5964 17.9 19.76C17.3037 19.9778 16.6748 20.0927 16.04 20.1C15.04 20.15 14.67 20.16 12.04 20.16C9.41 20.16 9.04 20.16 8.04 20.1C7.38089 20.1123 6.72459 20.0109 6.1 19.8C5.68578 19.6281 5.31136 19.3728 5 19.05C4.66809 18.7287 4.41484 18.3352 4.26 17.9C4.01586 17.2952 3.88044 16.6519 3.86 16C3.86 15 3.8 14.63 3.8 12C3.8 9.37 3.8 9 3.86 8C3.86448 7.35106 3.98295 6.70795 4.21 6.1C4.38605 5.67791 4.65627 5.30166 5 5C5.30381 4.65617 5.67929 4.3831 6.1 4.2C6.70955 3.98004 7.352 3.86508 8 3.86C9 3.86 9.37 3.8 12 3.8C14.63 3.8 15 3.8 16 3.86C16.6348 3.86728 17.2637 3.98225 17.86 4.2C18.3144 4.36865 18.7223 4.64285 19.05 5C19.3777 5.30718 19.6338 5.68273 19.8 6.1C20.0223 6.70893 20.1373 7.35178 20.14 8C20.19 9 20.2 9.37 20.2 12C20.2 14.63 20.19 15 20.14 16ZM12 6.87C10.9858 6.87198 9.99496 7.17453 9.15265 7.73942C8.31035 8.30431 7.65438 9.1062 7.26763 10.0438C6.88089 10.9813 6.78072 12.0125 6.97979 13.0069C7.17886 14.0014 7.66824 14.9145 8.38608 15.631C9.10392 16.3474 10.018 16.835 11.0129 17.0321C12.0077 17.2293 13.0387 17.1271 13.9755 16.7385C14.9123 16.35 15.7129 15.6924 16.2761 14.849C16.8394 14.0056 17.14 13.0142 17.14 12C17.1413 11.3251 17.0092 10.6566 16.7512 10.033C16.4933 9.40931 16.1146 8.84281 15.6369 8.36605C15.1592 7.88929 14.5919 7.51168 13.9678 7.25493C13.3436 6.99818 12.6749 6.86736 12 6.87ZM12 15.33C11.3414 15.33 10.6976 15.1347 10.15 14.7688C9.60234 14.4029 9.17552 13.8828 8.92348 13.2743C8.67144 12.6659 8.6055 11.9963 8.73398 11.3503C8.86247 10.7044 9.17963 10.111 9.64533 9.64533C10.111 9.17963 10.7044 8.86247 11.3503 8.73398C11.9963 8.6055 12.6659 8.67144 13.2743 8.92348C13.8828 9.17552 14.4029 9.60234 14.7688 10.15C15.1347 10.6976 15.33 11.3414 15.33 12C15.33 12.4373 15.2439 12.8703 15.0765 13.2743C14.9092 13.6784 14.6639 14.0454 14.3547 14.3547C14.0454 14.6639 13.6784 14.9092 13.2743 15.0765C12.8703 15.2439 12.4373 15.33 12 15.33Z" fill="#939393"/>
<path d="M57.5 8.99903C56.6047 8.99865 55.7233 9.22009 54.9345 9.64356C54.8626 9.45399 54.7346 9.2908 54.5677 9.17567C54.4008 9.06055 54.2027 8.99894 54 8.99903H50C49.8686 8.99896 49.7386 9.02477 49.6172 9.075C49.4958 9.12523 49.3856 9.19888 49.2927 9.29176C49.1998 9.38463 49.1262 9.4949 49.0759 9.61626C49.0257 9.73762 48.9999 9.86769 49 9.99903V21.999C48.9999 22.1304 49.0257 22.2604 49.0759 22.3818C49.1262 22.5032 49.1998 22.6134 49.2927 22.7063C49.3856 22.7992 49.4958 22.8728 49.6172 22.9231C49.7386 22.9733 49.8686 22.9991 50 22.999H54C54.1313 22.9991 54.2614 22.9733 54.3827 22.9231C54.5041 22.8728 54.6144 22.7992 54.7072 22.7063C54.8001 22.6134 54.8738 22.5032 54.924 22.3818C54.9742 22.2604 55 22.1304 55 21.999V16.499C55 16.2338 55.1053 15.9795 55.2929 15.7919C55.4804 15.6044 55.7348 15.499 56 15.499C56.2652 15.499 56.5195 15.6044 56.7071 15.7919C56.8946 15.9795 57 16.2338 57 16.499V21.999C56.9999 22.1304 57.0257 22.2604 57.0759 22.3818C57.1262 22.5032 57.1998 22.6134 57.2927 22.7063C57.3856 22.7992 57.4958 22.8728 57.6172 22.9231C57.7386 22.9733 57.8686 22.9991 58 22.999H62C62.1313 22.9991 62.2614 22.9733 62.3827 22.9231C62.5041 22.8728 62.6144 22.7992 62.7072 22.7063C62.8001 22.6134 62.8738 22.5032 62.924 22.3818C62.9742 22.2604 63 22.1304 63 21.999V14.499C62.9982 13.0409 62.4181 11.643 61.3871 10.6119C60.356 9.58089 58.9581 9.00084 57.5 8.99903ZM61 20.999H59V16.499C59 15.7034 58.6839 14.9403 58.1213 14.3777C57.5587 13.8151 56.7956 13.499 56 13.499C55.2043 13.499 54.4413 13.8151 53.8786 14.3777C53.316 14.9403 53 15.7034 53 16.499V20.999H51V10.999H53V11.7022C53.0001 11.9094 53.0645 12.1114 53.1844 12.2804C53.3043 12.4494 53.4737 12.577 53.6692 12.6456C53.8647 12.7142 54.0767 12.7204 54.2759 12.6634C54.4751 12.6063 54.6517 12.4889 54.7812 12.3272C55.23 11.7572 55.8456 11.3416 56.542 11.1384C57.2384 10.9352 57.9808 10.9546 58.6657 11.1937C59.3506 11.4329 59.9436 11.88 60.3621 12.4726C60.7806 13.0651 61.0036 13.7736 61 14.499V20.999ZM47 8.99903H43C42.8686 8.99896 42.7386 9.02477 42.6172 9.075C42.4958 9.12523 42.3856 9.19888 42.2927 9.29176C42.1998 9.38463 42.1262 9.4949 42.0759 9.61626C42.0257 9.73762 41.9999 9.86769 42 9.99903V21.999C41.9999 22.1304 42.0257 22.2604 42.0759 22.3818C42.1262 22.5032 42.1998 22.6134 42.2927 22.7063C42.3856 22.7992 42.4958 22.8728 42.6172 22.9231C42.7386 22.9733 42.8686 22.9991 43 22.999H47C47.1313 22.9991 47.2614 22.9733 47.3827 22.9231C47.5041 22.8728 47.6144 22.7992 47.7072 22.7063C47.8001 22.6134 47.8738 22.5032 47.924 22.3818C47.9742 22.2604 48 22.1304 48 21.999V9.99903C48 9.86769 47.9742 9.73762 47.924 9.61626C47.8738 9.4949 47.8001 9.38463 47.7072 9.29176C47.6144 9.19888 47.5041 9.12523 47.3827 9.075C47.2614 9.02477 47.1313 8.99896 47 8.99903ZM46 20.999H44V10.999H46V20.999ZM45.0146 1.54203C44.577 1.51583 44.1386 1.57893 43.7261 1.72748C43.3136 1.87602 42.9356 2.10692 42.6152 2.40612C42.2947 2.70533 42.0385 3.06659 41.862 3.46793C41.6856 3.86928 41.5926 4.30232 41.5887 4.74072C41.5849 5.17913 41.6703 5.61374 41.8397 6.01811C42.009 6.42249 42.2589 6.78819 42.5741 7.09297C42.8892 7.39775 43.2631 7.63525 43.6729 7.79101C44.0827 7.94677 44.5199 8.01755 44.958 7.99903H44.9863C45.4251 8.02509 45.8646 7.96141 46.2779 7.81188C46.6913 7.66235 47.0698 7.43011 47.3904 7.12934C47.711 6.82858 47.9668 6.46561 48.1424 6.06261C48.3179 5.65962 48.4095 5.22506 48.4114 4.78549C48.4133 4.34593 48.3256 3.91058 48.1536 3.50606C47.9816 3.10154 47.7289 2.73634 47.411 2.43278C47.0931 2.12921 46.7166 1.89366 46.3046 1.7405C45.8925 1.58735 45.4536 1.51982 45.0146 1.54203H45.0146ZM44.9863 5.99903H44.958C44.785 6.02003 44.6096 6.00381 44.4435 5.95146C44.2773 5.89911 44.1243 5.81184 43.9946 5.6955C43.865 5.57915 43.7617 5.43643 43.6917 5.27691C43.6217 5.11738 43.5866 4.94473 43.5888 4.77054C43.5888 4.02444 44.1484 3.54202 45.0146 3.54202C45.1893 3.51873 45.367 3.53315 45.5356 3.58431C45.7043 3.63546 45.86 3.72216 45.9924 3.83857C46.1247 3.95499 46.2305 4.0984 46.3028 4.25916C46.375 4.41992 46.4119 4.5943 46.4111 4.77054C46.4111 5.51663 45.8515 5.99903 44.9863 5.99903Z" fill="#939393"/>
<path d="M98.83 9.44C98.7383 9.30429 98.6146 9.19319 98.4699 9.11647C98.3252 9.03975 98.1638 8.99975 98 9H95V7H97.2C97.4652 7 97.7196 6.89464 97.9071 6.70711C98.0946 6.51957 98.2 6.26522 98.2 6V2C98.2 1.73478 98.0946 1.48043 97.9071 1.29289C97.7196 1.10536 97.4652 1 97.2 1H94C92.4617 1 90.9865 1.61107 89.8988 2.69878C88.8111 3.78649 88.2 5.26174 88.2 6.8V9H86C85.7348 9 85.4804 9.10536 85.2929 9.29289C85.1054 9.48043 85 9.73478 85 10V14C85 14.2652 85.1054 14.5196 85.2929 14.7071C85.4804 14.8946 85.7348 15 86 15H88.2V22C88.2 22.2652 88.3054 22.5196 88.4929 22.7071C88.6804 22.8946 88.9348 23 89.2 23H94C94.2652 23 94.5196 22.8946 94.7071 22.7071C94.8946 22.5196 95 22.2652 95 22V15H96.4C96.6003 15.0002 96.796 14.9402 96.9618 14.8279C97.1276 14.7156 97.2559 14.5561 97.33 14.37L98.93 10.37C98.9904 10.2186 99.0129 10.0547 98.9954 9.89259C98.978 9.7305 98.9212 9.57512 98.83 9.44ZM95.72 13H94C93.7348 13 93.4804 13.1054 93.2929 13.2929C93.1054 13.4804 93 13.7348 93 14V21H90.2V14C90.2 13.7348 90.0946 13.4804 89.9071 13.2929C89.7196 13.1054 89.4652 13 89.2 13H87V11H89.2C89.4652 11 89.7196 10.8946 89.9071 10.7071C90.0946 10.5196 90.2 10.2652 90.2 10V6.8C90.2026 5.79299 90.6038 4.82798 91.3159 4.11591C92.028 3.40384 92.993 3.00264 94 3H96.2V5H95.4C95.0614 4.95067 94.7163 4.97137 94.3861 5.06082C94.0558 5.15026 93.7474 5.30655 93.48 5.52C93.3177 5.6899 93.1915 5.8909 93.109 6.11089C93.0265 6.33087 92.9894 6.56529 93 6.8V10C93 10.2652 93.1054 10.5196 93.2929 10.7071C93.4804 10.8946 93.7348 11 94 11H96.52L95.72 13Z" fill="#939393"/>
<path d="M142.991 3.95021C142.991 3.77357 142.945 3.60007 142.856 3.44735C142.767 3.29464 142.639 3.16817 142.486 3.08084C142.332 2.9935 142.158 2.94842 141.982 2.95017C141.805 2.95193 141.632 3.00046 141.48 3.09083C140.895 3.43921 140.265 3.70601 139.607 3.88383C138.668 3.07806 137.471 2.63713 136.233 2.64164C134.876 2.6432 133.572 3.17223 132.598 4.11702C131.623 5.06181 131.054 6.3484 131.01 7.70512C128.334 7.27838 125.908 5.88164 124.196 3.78126C124.093 3.65609 123.961 3.55757 123.812 3.494C123.663 3.43043 123.501 3.40368 123.339 3.41601C123.177 3.42932 123.021 3.4818 122.884 3.56892C122.748 3.65603 122.634 3.77516 122.554 3.91601C122.141 4.63582 121.904 5.44276 121.862 6.27131C121.82 7.09986 121.974 7.92666 122.312 8.68456L122.31 8.68651C122.158 8.77991 122.033 8.91066 121.946 9.06625C121.859 9.22185 121.814 9.39708 121.814 9.57519C121.813 9.72211 121.821 9.86898 121.841 10.0146C121.943 11.2729 122.501 12.4507 123.409 13.3271C123.348 13.4446 123.31 13.5731 123.299 13.7052C123.287 13.8373 123.302 13.9704 123.343 14.0967C123.739 15.3308 124.581 16.3727 125.705 17.0185C124.563 17.46 123.33 17.614 122.115 17.4668C121.89 17.4386 121.662 17.4876 121.469 17.6059C121.276 17.7242 121.128 17.9047 121.051 18.1178C120.974 18.3309 120.971 18.5639 121.044 18.7787C121.116 18.9935 121.26 19.1772 121.45 19.2998C123.54 20.646 125.974 21.3617 128.46 21.3613C131.279 21.393 134.03 20.4921 136.284 18.7988C138.538 17.1054 140.17 14.7145 140.925 11.998C141.278 10.8146 141.458 9.58648 141.46 8.35157C141.46 8.28614 141.46 8.21876 141.459 8.15138C141.981 7.58831 142.386 6.92668 142.649 6.20527C142.912 5.48387 143.028 4.7172 142.991 3.95021ZM139.685 7.16212C139.519 7.35746 139.436 7.60891 139.451 7.86427C139.461 8.02927 139.46 8.19527 139.46 8.35157C139.458 9.39511 139.305 10.4329 139.006 11.4326C138.389 13.744 137.015 15.7817 135.103 17.2192C133.191 18.6568 130.852 19.4111 128.46 19.3613C127.601 19.3616 126.745 19.2606 125.909 19.0606C126.975 18.7172 127.971 18.1879 128.852 17.4971C129.014 17.3693 129.133 17.1945 129.191 16.9967C129.25 16.7988 129.247 16.5875 129.181 16.3918C129.115 16.1961 128.99 16.0257 128.823 15.9038C128.657 15.7819 128.456 15.7145 128.25 15.7109C127.419 15.698 126.625 15.363 126.036 14.7764C126.186 14.7481 126.334 14.7129 126.481 14.6709C126.697 14.6094 126.886 14.477 127.018 14.295C127.15 14.1131 127.216 13.8921 127.207 13.6677C127.198 13.4433 127.113 13.2285 126.967 13.058C126.821 12.8874 126.622 12.7711 126.401 12.7275C125.919 12.6323 125.465 12.427 125.075 12.1277C124.684 11.8284 124.368 11.4432 124.151 11.002C124.332 11.0266 124.514 11.0419 124.696 11.0479C124.913 11.0511 125.125 10.9854 125.302 10.8603C125.478 10.7351 125.611 10.5569 125.68 10.3516C125.746 10.1443 125.742 9.92123 125.67 9.7161C125.598 9.51096 125.461 9.33499 125.279 9.21485C124.839 8.92182 124.479 8.52427 124.231 8.0578C123.982 7.59134 123.853 7.07052 123.855 6.54201C123.855 6.47561 123.857 6.4092 123.861 6.34377C126.103 8.43402 129.01 9.66621 132.07 9.82326C132.225 9.82934 132.379 9.80024 132.52 9.73816C132.662 9.67607 132.788 9.58262 132.888 9.46486C132.987 9.34596 133.057 9.20566 133.093 9.05501C133.129 8.90437 133.129 8.74748 133.094 8.5967C133.037 8.35806 133.007 8.11357 133.007 7.86818C133.008 7.01271 133.348 6.19254 133.953 5.58764C134.558 4.98274 135.378 4.64251 136.233 4.64161C136.674 4.64043 137.109 4.7305 137.513 4.90615C137.916 5.0818 138.279 5.3392 138.578 5.66212C138.693 5.7862 138.839 5.87871 139 5.93085C139.161 5.98299 139.333 5.99303 139.499 5.96001C139.91 5.88006 140.315 5.7724 140.711 5.63775C140.441 6.19072 140.095 6.70369 139.685 7.16212Z" fill="#939393"/>
<path d="M172 2C170.022 2 168.089 2.58649 166.444 3.6853C164.8 4.78412 163.518 6.3459 162.761 8.17317C162.004 10.0004 161.806 12.0111 162.192 13.9509C162.578 15.8907 163.53 17.6725 164.929 19.0711C166.327 20.4696 168.109 21.422 170.049 21.8079C171.989 22.1937 174 21.9957 175.827 21.2388C177.654 20.4819 179.216 19.2002 180.315 17.5557C181.414 15.9112 182 13.9778 182 12C182 10.6868 181.741 9.38642 181.239 8.17317C180.736 6.95991 180 5.85752 179.071 4.92893C178.142 4.00035 177.04 3.26375 175.827 2.7612C174.614 2.25866 173.313 2 172 2ZM172 4C174.055 3.99918 176.03 4.79493 177.51 6.22C175.982 7.1162 174.363 7.847 172.68 8.4C171.842 6.95683 170.882 5.58844 169.81 4.31C170.522 4.105 171.259 4.00065 172 4ZM167.89 5.15C168.938 6.34851 169.878 7.6368 170.7 9C168.737 9.4874 166.723 9.73587 164.7 9.74H164.34C164.907 7.81964 166.174 6.18181 167.89 5.15ZM166 17.31C164.699 15.8488 163.986 13.9566 164 12C164 11.9 164 11.8 164 11.71H164.68C167.047 11.6888 169.401 11.3525 171.68 10.71C172 11.32 172.3 11.95 172.59 12.6C171.031 13.1494 169.58 13.9648 168.3 15.01L168 15.25C167.287 15.8902 166.619 16.5785 166 17.31ZM172 20C170.406 20.0035 168.848 19.5261 167.53 18.63C168.017 18.0716 168.538 17.5439 169.09 17.05L169.41 16.78C170.593 15.7849 171.949 15.0155 173.41 14.51C174.011 16.136 174.48 17.8082 174.81 19.51C173.91 19.8387 172.958 20.0046 172 20ZM176.63 18.51C176.303 16.9966 175.875 15.5066 175.35 14.05H175.69C175.729 14.0403 175.771 14.0403 175.81 14.05H175.92H176.02H176.5C177.552 14.053 178.597 14.2322 179.59 14.58C179.044 16.1704 178.008 17.5464 176.63 18.51ZM176.5 12C176.29 12 176.08 12 175.88 12C175.751 11.9837 175.619 11.9837 175.49 12C175.218 12.0167 174.948 12.0501 174.68 12.1H174.58C174.29 11.43 173.99 10.78 173.66 10.1C175.451 9.48506 177.17 8.68049 178.79 7.7C179.593 8.98937 180.013 10.4809 180 12C180 12.17 180 12.34 180 12.51C178.867 12.1602 177.686 11.9882 176.5 12Z" fill="#939393"/>
</svg>
